<svg width="20" height="20" viewBox="0 0 20 20" fill="none" xmlns="http://www.w3.org/2000/svg">
<mask id="mask0_4635_1149" style="mask-type:alpha" maskUnits="userSpaceOnUse" x="0" y="0" width="20" height="20">
<rect width="20" height="20" fill="#D9D9D9"/>
</mask>
<g mask="url(#mask0_4635_1149)">
<path d="M13.8558 10.6255H4.375C4.19764 10.6255 4.04917 10.5656 3.92958 10.4459C3.80986 10.3263 3.75 10.1779 3.75 10.0005C3.75 9.82313 3.80986 9.67466 3.92958 9.55508C4.04917 9.43536 4.19764 9.37549 4.375 9.37549H13.8558L9.54812 5.06779C9.42424 4.9439 9.36306 4.7989 9.36458 4.63279C9.36625 4.46667 9.43167 4.31897 9.56083 4.18966C9.69014 4.06897 9.83653 4.00647 10 4.00216C10.1635 3.99786 10.3099 4.06036 10.4392 4.18966L15.7227 9.4732C15.8008 9.55126 15.8558 9.63355 15.8877 9.72008C15.9198 9.8066 15.9358 9.90008 15.9358 10.0005C15.9358 10.1009 15.9198 10.1944 15.8877 10.2809C15.8558 10.3674 15.8008 10.4497 15.7227 10.5278L10.4392 15.8113C10.3237 15.9267 10.1808 15.9858 10.0104 15.9884C9.84 15.991 9.69014 15.932 9.56083 15.8113C9.43167 15.682 9.36708 15.5335 9.36708 15.3659C9.36708 15.1981 9.43167 15.0496 9.56083 14.9203L13.8558 10.6255Z" fill="#003B4A"/>
</g>
</svg>
