<svg width="24" height="24" viewBox="0 0 24 24" fill="none" xmlns="http://www.w3.org/2000/svg">
<path d="M11.6927 5.65104C14.974 5.65104 17.6823 8.35938 17.6823 11.6406C17.6823 14.974 14.974 17.6302 11.6927 17.6302C8.35938 17.6302 5.70313 14.974 5.70313 11.6406C5.70313 8.35938 8.35938 5.65104 11.6927 5.65104ZM11.6927 15.5469C13.8281 15.5469 15.5469 13.8281 15.5469 11.6406C15.5469 9.50521 13.8281 7.78646 11.6927 7.78646C9.50521 7.78646 7.78646 9.50521 7.78646 11.6406C7.78646 13.8281 9.55729 15.5469 11.6927 15.5469ZM19.2969 5.44271C19.2969 4.66146 18.6719 4.03646 17.8906 4.03646C17.1094 4.03646 16.4844 4.66146 16.4844 5.44271C16.4844 6.22396 17.1094 6.84896 17.8906 6.84896C18.6719 6.84896 19.2969 6.22396 19.2969 5.44271ZM23.2552 6.84896C23.3594 8.77604 23.3594 14.5573 23.2552 16.4844C23.151 18.3594 22.7344 19.974 21.3802 21.3802C20.026 22.7344 18.3594 23.151 16.4844 23.2552C14.5573 23.3594 8.77604 23.3594 6.84896 23.2552C4.97396 23.151 3.35938 22.7344 1.95313 21.3802C0.598958 19.974 0.182292 18.3594 0.078125 16.4844C-0.0260417 14.5573 -0.0260417 8.77604 0.078125 6.84896C0.182292 4.97396 0.598958 3.30729 1.95313 1.95313C3.35938 0.598958 4.97396 0.182292 6.84896 0.078125C8.77604 -0.0260417 14.5573 -0.0260417 16.4844 0.078125C18.3594 0.182292 20.026 0.598958 21.3802 1.95313C22.7344 3.30729 23.151 4.97396 23.2552 6.84896ZM20.7552 18.5156C21.3802 17.0052 21.224 13.3594 21.224 11.6406C21.224 9.97396 21.3802 6.32813 20.7552 4.76562C20.3385 3.77604 19.5573 2.94271 18.5677 2.57813C17.0052 1.95313 13.3594 2.10938 11.6927 2.10938C9.97396 2.10938 6.32813 1.95313 4.81771 2.57813C3.77604 2.99479 2.99479 3.77604 2.57813 4.76562C1.95313 6.32813 2.10938 9.97396 2.10938 11.6406C2.10938 13.3594 1.95313 17.0052 2.57813 18.5156C2.99479 19.5573 3.77604 20.3385 4.81771 20.7552C6.32813 21.3802 9.97396 21.224 11.6927 21.224C13.3594 21.224 17.0052 21.3802 18.5677 20.7552C19.5573 20.3385 20.3906 19.5573 20.7552 18.5156Z" fill="white"/>
</svg>
